<?xml version="1.0" encoding="UTF-8"?>
<svg id="Layer_2" data-name="Layer 2" xmlns="http://www.w3.org/2000/svg" viewBox="0 0 160 160">
  <defs>
    <mask id="textMask">
      <!-- White = visible, Black = transparent (knocked out) -->
      <rect width="160" height="160" fill="white"/>
      <path d="M36.6,120.86c1.06,2.65,1.6,3.91,1.89,4.58.83,1.91,1.39,3.18,1.8,4.16.41.98.7,1.77.91,2.45.23.75.36,1.29.39,1.59s-.08.41-.36.3c-.47-.19-1.14-.7-1.98-1.46-.84-.76-1.51-1.42-1.88-1.97,0-.06-.32-.78-1-2.42-.68-1.64-1.27-3.73-2.01-6.64-.18-.37-.43-.83-.72-1.35-.29-.52-.43-.8-.46-.89-.49-1.21-.86-3.13-.21-4.51,0-2.25.49-4.29,1.61-6.22,1.12-1.94,4.88-5.48,10.11-11.64,1.29-1.52,2.52-2.93,3.66-4.19,1.13-1.27,1.96-2.13,2.6-2.63.66-.51,1.06-.73,1.26-.7.19.03.24.23.14.62-.11.4-.33,1.05-.75,1.98-.73,1.64-1.42,3.08-1.84,4.03-3.55,7.72-6.71,14.86-6.84,16.82-.13,1.95.9,5.36,2.38,8.92,1.36,3.27,2.58,5.49,5.48,10.84.99,2.04,1.53,3.44,1.65,4.3.12.86-.23.97-.76.86-1.01-.21-1.76-.65-2.46-1.48-.69-.82-1.53-2.06-3.53-5.96-1.46-2.83-3.49-7.18-4.62-11.01-2.37.24-4.33.03-4.44,1.64ZM37.45,114.07c.86-.07,1.31-.11,2.2-.18-.79-4.69,1.32-7.54,3.3-10.98-2.3,2.85-6.19,5.95-6.92,11.34.29-.08.76-.14,1.42-.18Z" fill="black"/>
      <path d="M73.12,89.45c-.09.73-.52,1.42-1.11,2.07-.59.65-1.2,1.18-1.81,1.54-.58.15-.89.24-1.55.45-.75.24-1.85.59-3.35,1.13-1.5.54-3.42,1.31-5.58,2.2-1.56,5.74-3.11,9.53-3.99,13.59,1.99-1.18,3.7-2.28,4.99-3.15,1.29-.86,2.69-1.77,3.99-2.69.98.17,1.61.56,1.92,1.63.19.66.12,1.52-.24,2.47-.36.95-.86,1.73-1.48,2.3-.94.55-1.44.83-2.48,1.36-2.77,1.45-5.21,2.53-6.87,3.31.19,2.59.69,8.16,1.66,12.71,2.68-1.08,6.19-3.94,7.3-3.94.34,0,.72.62.56,3.79-.1,1.97-.22,3.55-.43,4.88-.2,1.34-.42,2.25-.72,2.56-1.73,1.75-4.57,2.39-5.55,2.73-.1.2-.34.24-.72.12-.35-.12-.64-.52-1.59-2.4-.94-1.89-2.7-5.74-3.03-6.59-.13-.33-.23-.67-.3-.99-4.76-11.81-2.37-16.63,1.34-29.07-.04,0-.06,0-.1.01.14-.74.17-1.62.11-2.6,0-.12,0-.51-.02-1.12-.02-.61,0-1.17.07-1.69.22-1.51.45-2.69.99-3.24.85-.88,3.65-2.35,7.55-3.57,3.9-1.23,7.24-1.33,8.5-.81,1.31.53,2.06,1.84,1.92,3.02Z" fill="black"/>
      <path d="M78.1,90.5c.24.32.42.69.47,1.12.43-.09.91-.05,1.21-.18.3-.13.62-.26.96-.39,1.34-.53,2.12-.63,3-.06s1.87,1.67,3.11,3.14c1.25,1.48,2.52,2.81,3.52,5.02.26.57.44,1.02.54,1.32,1.64,4.39,2.42,8.76,2.49,11.87.07,3.11-.19,5.2-1.6,8.04-1.41,2.84-4.27,6.48-9.76,10.64-1.53,1.16-3.95,2.81-6.44,4.14-.96.51-2.32,1.18-3.76,1.51-1.44.33-2.55.21-3.37-.53-.81-.74-1.13-1.92-1.24-3.01-.07-.63-.08-1.28-.05-1.89,3.21-10.36,7.6-21.63,6.98-32.73-1.19.71-2.07,1.51-2.61,2.55-.35-.58-.91-1.28-.89-1.82.03-.54.25-1.16.59-1.84.39-.78.87-1.53,1.31-2.12.78-1.05,1.52-1.97,2.72-2.71.84-1.82,1.39-2.76,1.92-2.66.36.06.67.27.92.58ZM76.98,131.5c3.32-2.18,5.59-4.8,6.88-7.35s1.9-5.07,2.13-8.04c.23-2.96.2-6.13.12-9.29-.02-1.26.29-2.99-.08-4.08-.84-2.45-1.76-4.43-2.7-5.69-.95-1.26-1.93-1.63-3.27-1.24-.58.17-1.11.38-1.59.64-.15,3.05,2.27,5.43-3.26,23.72-2.97,9.83-2.27,12.31-2.04,13.18,1.19-.33,2.49-.98,3.82-1.85Z" fill="black"/>
    </mask>
  </defs>
  <path fill="#000000" mask="url(#textMask)" d="M142.06,94.85c-3.67,13.23-21.26,19.73-31.59,16.79-3.65-1.04-7.25-3.45-9.87-1.73-2.85,1.88-1.33,6.6-2.47,10.47-3.28,11.11-38.06,31.93-55.76,19.71-10.53-7.27-18.05-23-12.59-34.22,3.45-7.08,19.21-21.63,25.97-23.22,3.2-.75,5.75-.76,7.31-.75,13.83.07,20.17,7.95,24.42,5.03,2.41-1.66.6-4.76,3.28-9.86,3.84-7.32,10.62-7.12,11.19-10.46,1.23-7.3-14.95,3.95-27.73-1.64-6.96-3.05-14.25-9.94-15.66-18.68-2.17-13.51,10.5-26.56,22.81-30.93,18.52-6.58,41.38,4.64,43.98,17.04,2.67,12.72-2.7,19.72-7.27,24.71-5.07,5.53,1.49,6.46,7.72,8.47,9.92,3.2,19.67,17.02,16.27,29.29Z"/>
  <path fill="#000000" mask="url(#textMask)" d="M56.18,51.9c3.69,5.98-1.34,14.94-5.6,19.36-4.46,4.63-13.41,9.77-21.49,6.08-4-1.83-8.08-5.95-8.59-11.18-1.01-10.27,12.56-16.41,13.12-16.66,6.87-3,18.57-4.07,22.56,2.4Z"/>
</svg>
