<?xml version="1.0" encoding="UTF-8"?>
<svg id="Layer_2" data-name="Layer 2" xmlns="http://www.w3.org/2000/svg" viewBox="0 0 160 160">
  <path fill="#000000" d="M142.06,94.85c-3.67,13.23-21.26,19.73-31.59,16.79-3.65-1.04-7.25-3.45-9.87-1.73-2.85,1.88-1.33,6.6-2.47,10.47-3.28,11.11-38.06,31.93-55.76,19.71-10.53-7.27-18.05-23-12.59-34.22,3.45-7.08,19.21-21.63,25.97-23.22,3.2-.75,5.75-.76,7.31-.75,13.83.07,20.17,7.95,24.42,5.03,2.41-1.66.6-4.76,3.28-9.86,3.84-7.32,10.62-7.12,11.19-10.46,1.23-7.3-14.95,3.95-27.73-1.64-6.96-3.05-14.25-9.94-15.66-18.68-2.17-13.51,10.5-26.56,22.81-30.93,18.52-6.58,41.38,4.64,43.98,17.04,2.67,12.72-2.7,19.72-7.27,24.71-5.07,5.53,1.49,6.46,7.72,8.47,9.92,3.2,19.67,17.02,16.27,29.29Z"/>
  <path fill="#000000" d="M56.18,51.9c3.69,5.98-1.34,14.94-5.6,19.36-4.46,4.63-13.41,9.77-21.49,6.08-4-1.83-8.08-5.95-8.59-11.18-1.01-10.27,12.56-16.41,13.12-16.66,6.87-3,18.57-4.07,22.56,2.4Z"/>
</svg>
